{
    "asset" : {
        "generator" : "Khronos glTF Blender I/O v1.6.16",
        "version" : "2.0"
    },
    "scene" : 0,
    "scenes" : [
        {
            "name" : "Scene",
            "nodes" : [
                0,
                1,
                2,
                3,
                4
            ]
        }
    ],
    "nodes" : [
        {
            "mesh" : 0,
            "name" : "Cube",
            "scale" : [
                2,
                2,
                2
            ]
        },
        {
            "name" : "Empty",
            "translation" : [
                -2,
                0,
                0
            ]
        },
        {
            "name" : "Empty.001",
            "translation" : [
                2,
                0,
                0
            ]
        },
        {
            "name" : "Empty.002",
            "translation" : [
                4,
                0,
                0
            ]
        },
        {
            "name" : "Empty.003",
            "translation" : [
                -4,
                0,
                0
            ]
        }
    ],
    "animations" : [
        {
            "channels" : [
                {
                    "sampler" : 0,
                    "target" : {
                        "node" : 1,
                        "path" : "translation"
                    }
                },
                {
                    "sampler" : 1,
                    "target" : {
                        "node" : 1,
                        "path" : "scale"
                    }
                }
            ],
            "name" : "EmptyAction",
            "samplers" : [
                {
                    "input" : 8,
                    "interpolation" : "LINEAR",
                    "output" : 9
                },
                {
                    "input" : 8,
                    "interpolation" : "LINEAR",
                    "output" : 10
                }
            ]
        },
        {
            "channels" : [
                {
                    "sampler" : 0,
                    "target" : {
                        "node" : 2,
                        "path" : "translation"
                    }
                },
                {
                    "sampler" : 1,
                    "target" : {
                        "node" : 2,
                        "path" : "scale"
                    }
                }
            ],
            "name" : "Empty.001Action",
            "samplers" : [
                {
                    "input" : 8,
                    "interpolation" : "LINEAR",
                    "output" : 11
                },
                {
                    "input" : 12,
                    "interpolation" : "LINEAR",
                    "output" : 13
                }
            ]
        },
        {
            "channels" : [
                {
                    "sampler" : 0,
                    "target" : {
                        "node" : 3,
                        "path" : "translation"
                    }
                },
                {
                    "sampler" : 1,
                    "target" : {
                        "node" : 3,
                        "path" : "scale"
                    }
                }
            ],
            "name" : "Empty.002Action",
            "samplers" : [
                {
                    "input" : 8,
                    "interpolation" : "LINEAR",
                    "output" : 14
                },
                {
                    "input" : 15,
                    "interpolation" : "LINEAR",
                    "output" : 16
                }
            ]
        },
        {
            "channels" : [
                {
                    "sampler" : 0,
                    "target" : {
                        "node" : 4,
                        "path" : "translation"
                    }
                },
                {
                    "sampler" : 1,
                    "target" : {
                        "node" : 4,
                        "path" : "scale"
                    }
                }
            ],
            "name" : "Empty.003Action",
            "samplers" : [
                {
                    "input" : 8,
                    "interpolation" : "LINEAR",
                    "output" : 17
                },
                {
                    "input" : 12,
                    "interpolation" : "LINEAR",
                    "output" : 18
                }
            ]
        }
    ],
    "materials" : [
        {
            "doubleSided" : true,
            "emissiveFactor" : [
                0.11697077751159668,
                0.6795424818992615,
                0.9473065733909607
            ],
            "name" : "Frames",
            "pbrMetallicRoughness" : {}
        },
        {
            "alphaCutoff" : 0.5,
            "alphaMode" : "MASK",
            "doubleSided" : true,
            "name" : "Panels",
            "pbrMetallicRoughness" : {}
        }
    ],
    "meshes" : [
        {
            "name" : "Cube",
            "primitives" : [
                {
                    "attributes" : {
                        "POSITION" : 0,
                        "NORMAL" : 1,
                        "TEXCOORD_0" : 2
                    },
                    "indices" : 3,
                    "material" : 0
                },
                {
                    "attributes" : {
                        "POSITION" : 4,
                        "NORMAL" : 5,
                        "TEXCOORD_0" : 6
                    },
                    "indices" : 7,
                    "material" : 1
                }
            ]
        }
    ],
    "accessors" : [
        {
            "bufferView" : 0,
            "componentType" : 5126,
            "count" : 768,
            "max" : [
                2.0773544311523438,
                2.003305196762085,
                2.0439419746398926
            ],
            "min" : [
                -2.0773544311523438,
                -2.003305196762085,
                -2.023622751235962
            ],
            "type" : "VEC3"
        },
        {
            "bufferView" : 1,
            "componentType" : 5126,
            "count" : 768,
            "type" : "VEC3"
        },
        {
            "bufferView" : 2,
            "componentType" : 5126,
            "count" : 768,
            "type" : "VEC2"
        },
        {
            "bufferView" : 3,
            "componentType" : 5123,
            "count" : 1152,
            "type" : "SCALAR"
        },
        {
            "bufferView" : 4,
            "componentType" : 5126,
            "count" : 96,
            "max" : [
                2.033412456512451,
                2,
                2
            ],
            "min" : [
                -2.033412456512451,
                -2,
                -2
            ],
            "type" : "VEC3"
        },
        {
            "bufferView" : 5,
            "componentType" : 5126,
            "count" : 96,
            "type" : "VEC3"
        },
        {
            "bufferView" : 6,
            "componentType" : 5126,
            "count" : 96,
            "type" : "VEC2"
        },
        {
            "bufferView" : 7,
            "componentType" : 5123,
            "count" : 144,
            "type" : "SCALAR"
        },
        {
            "bufferView" : 8,
            "componentType" : 5126,
            "count" : 400,
            "max" : [
                10
            ],
            "min" : [
                0.025
            ],
            "type" : "SCALAR"
        },
        {
            "bufferView" : 9,
            "componentType" : 5126,
            "count" : 400,
            "type" : "VEC3"
        },
        {
            "bufferView" : 10,
            "componentType" : 5126,
            "count" : 400,
            "type" : "VEC3"
        },
        {
            "bufferView" : 11,
            "componentType" : 5126,
            "count" : 400,
            "type" : "VEC3"
        },
        {
            "bufferView" : 12,
            "componentType" : 5126,
            "count" : 301,
            "max" : [
                10
            ],
            "min" : [
                2.5
            ],
            "type" : "SCALAR"
        },
        {
            "bufferView" : 13,
            "componentType" : 5126,
            "count" : 301,
            "type" : "VEC3"
        },
        {
            "bufferView" : 14,
            "componentType" : 5126,
            "count" : 400,
            "type" : "VEC3"
        },
        {
            "bufferView" : 15,
            "componentType" : 5126,
            "count" : 300,
            "max" : [
                7.5
            ],
            "min" : [
                0.025
            ],
            "type" : "SCALAR"
        },
        {
            "bufferView" : 16,
            "componentType" : 5126,
            "count" : 300,
            "type" : "VEC3"
        },
        {
            "bufferView" : 17,
            "componentType" : 5126,
            "count" : 400,
            "type" : "VEC3"
        },
        {
            "bufferView" : 18,
            "componentType" : 5126,
            "count" : 301,
            "type" : "VEC3"
        }
    ],
    "bufferViews" : [
        {
            "buffer" : 0,
            "byteLength" : 9216,
            "byteOffset" : 0
        },
        {
            "buffer" : 0,
            "byteLength" : 9216,
            "byteOffset" : 9216
        },
        {
            "buffer" : 0,
            "byteLength" : 6144,
            "byteOffset" : 18432
        },
        {
            "buffer" : 0,
            "byteLength" : 2304,
            "byteOffset" : 24576
        },
        {
            "buffer" : 0,
            "byteLength" : 1152,
            "byteOffset" : 26880
        },
        {
            "buffer" : 0,
            "byteLength" : 1152,
            "byteOffset" : 28032
        },
        {
            "buffer" : 0,
            "byteLength" : 768,
            "byteOffset" : 29184
        },
        {
            "buffer" : 0,
            "byteLength" : 288,
            "byteOffset" : 29952
        },
        {
            "buffer" : 0,
            "byteLength" : 1600,
            "byteOffset" : 30240
        },
        {
            "buffer" : 0,
            "byteLength" : 4800,
            "byteOffset" : 31840
        },
        {
            "buffer" : 0,
            "byteLength" : 4800,
            "byteOffset" : 36640
        },
        {
            "buffer" : 0,
            "byteLength" : 4800,
            "byteOffset" : 41440
        },
        {
            "buffer" : 0,
            "byteLength" : 1204,
            "byteOffset" : 46240
        },
        {
            "buffer" : 0,
            "byteLength" : 3612,
            "byteOffset" : 47444
        },
        {
            "buffer" : 0,
            "byteLength" : 4800,
            "byteOffset" : 51056
        },
        {
            "buffer" : 0,
            "byteLength" : 1200,
            "byteOffset" : 55856
        },
        {
            "buffer" : 0,
            "byteLength" : 3600,
            "byteOffset" : 57056
        },
        {
            "buffer" : 0,
            "byteLength" : 4800,
            "byteOffset" : 60656
        },
        {
            "buffer" : 0,
            "byteLength" : 3612,
            "byteOffset" : 65456
        }
    ],
    "buffers" : [
        {
            "byteLength" : 69068,
            "uri" : "data:application/octet-stream;base64,"
        }
    ]
}
