<?xml version="1.0" encoding="UTF-8"?>
<svg version="1.1" viewBox="0 0 794.67 1122.7" xmlSpace="preserve" xmlns="http://www.w3.org/2000/svg" xmlnsCc="http://creativecommons.org/ns#" xmlnsDc="http://purl.org/dc/elements/1.1/" xmlnsRdf="http://www.w3.org/1999/02/22-rdf-syntax-ns#"><metadata><rdfRDF><ccWork rdfAbout=""><dcFormat>image/svg+xml</dcFormat><dcType rdfResource="http://purl.org/dc/dcmitype/StillImage"/></ccWork></rdfRDF></metadata><g transform="matrix(1.3333 0 0 -1.3333 0 1122.7)"><g transform="scale(.1)" fill="#fff"><path d="m2894.8 6648c-1559.7-552.9-796.67-2049.8-463.18-2325.1 176.37-145.59 321.85-1331.7 352.8-1429.7 12.37-131-153.54-803.76-237.26-893.32-276.74 209.14-713.83 1110-709.44 1383.6 408.22-372.65 662.51-118.93 387.85 548.79-282.9 687.79-567.61 396.89-676.66 169.17-293.26 128.69-606.58 804.61-635.48 1105.8 189.82-127.91 363.12-387.85 767.48-346.6-4.13 755.1-709.69 775.73-709.69 833.5 0 169.96 600.37 885.07 600.37 885.07 1.79 1304.7 59.54 388.65 538.47 460.07 160.92 199.11 785.76 675.43 785.76 675.43s687.01-473.49 847.93-672.59c433.26 16.52 540.56 680.83 538.48-460.06 0 0 600.36-736.53 600.36-835.56 0-57.77-680.8-185.68-684.93-940.78 404.36-41.26 651.93 301.21 841.74 429.12-28.89-301.21-495.14-1180.1-639.57-1295.6-198.04 429.14-458.02 738.57-812.86-239.32-418.78-1154.1 127.87-1242 305.33-1233.7-606.55-612.74-474.51-1551.5-689.06-1761.9-78.41 365.16-86.66 3342.2 218.67 3631.1 314.16 297.18 1032.6 1759.8-527.11 2312.7"/><path d="m2908.8 4471.5s-43.99 280.58-242.05 610.68c-154.93 258.23-262.37 292.68-216.05 361.04 94.3 139.15 342.87 470.54 486.45 538.48 0 0 377.86-348.67 445.86-534.34 28.94-78.95-105.79-251.7-204.03-429.14-109.38-197.55-146.07-389.4-230.86-507.64l-39.32-39.08"/></g></g></svg>
