<?xml version="1.0" encoding="UTF-8"?>
<svg version="1.1" viewBox="0 0 360 360" xmlns="http://www.w3.org/2000/svg" xmlnsCc="http://creativecommons.org/ns#" xmlnsDc="http://purl.org/dc/elements/1.1/" xmlnsRdf="http://www.w3.org/1999/02/22-rdf-syntax-ns#">
<metadata>
<rdfRDF>
<ccWork rdfAbout="">
<dcFormat>image/svg+xml</dcFormat>
<dcType rdfResource="http://purl.org/dc/dcmitype/StillImage"/>
<dcTitle/>
</ccWork>
</rdfRDF>
</metadata>
<ellipse cx="180" cy="180" rx="176.5" ry="176.5" fill="#fff" stroke="#fff" stroke-width="7"/>
<path d="m123.59 252.17-50-143h-26l50 143zm140 0 50-143h-25l-50 143zm-83.241-93.125 25.416 68.125h25.624l42.501-118h-25l-30.16 78-20.247-55h-36.115l-21.028 55-28.95-78h-26l41.883 118h27.159z" fill-opacity="1.0" fill="#000"/>
<g transform="translate(-321.41 -15.327)" fill="#000" fill-opacity="1.0" stroke-width="1px">
<path d="m434.27 288.95h-3.5397l-3.8539 11.395-3.4473-11.395h-4.1682l-3.4195 11.395-3.9001-11.395h-3.8447l5.4713 14.861h4.353l3.4103-10.887 3.3271 10.887h4.353l5.2587-14.861z"/>
<path d="m451.37 303.81v-2.9944h-11.127v-2.9667h10.675v-2.9759h-10.675v-2.9297h10.998v-2.9944h-14.519v14.861h14.649z"/>
<path d="m471.09 299.34c0-1.2384-0.45286-2.2181-1.3586-2.9205-0.90571-0.7024-2.3197-1.1553-4.2421-1.3586l-3.207-0.37892c-1.2477-0.14787-2.1719-0.2865-2.7634-0.42513-0.59149-0.12939-1.0166-0.28651-1.2662-0.47135-0.25878-0.18484-0.37893-0.45286-0.37893-0.80405 0-0.36968 0.12939-0.65619 0.40665-0.85027 0.26802-0.18484 0.70239-0.32347 1.3031-0.41589 0.60074-0.0924 1.4233-0.13863 2.4769-0.13863 3.1793 0 4.7689 0.65618 4.7689 1.9686h3.7892c0-0.60997-0.15712-1.2107-0.4621-1.793-0.30499-0.573-0.78558-1.0906-1.451-1.5434-0.66542-0.44361-1.5342-0.80405-2.5878-1.0813-1.0536-0.26802-2.3382-0.40665-3.8354-0.40665-1.7005 0-3.1515 0.18484-4.3715 0.53604-1.2199 0.35119-2.1442 0.86875-2.7726 1.5342-0.6377 0.67467-0.95193 1.4695-0.95193 2.3752 0 1.2477 0.48983 2.1996 1.4787 2.865 0.9889 0.66543 2.5878 1.1368 4.8058 1.3955l2.9852 0.36044c1.0628 0.11091 1.8669 0.2403 2.4122 0.36968 0.53604 0.13863 0.91496 0.31423 1.1368 0.51756 0.22181 0.20332 0.33271 0.50831 0.33271 0.90571 0 0.58225-0.36044 0.9889-1.0628 1.2292s-1.8022 0.36044-3.2902 0.36044c-1.6451 0-2.9205-0.19408-3.8077-0.58225-0.89648-0.38816-1.3401-0.91496-1.3401-1.5711h-3.8262c0 1.0628 0.3512 1.9778 1.0536 2.7356 0.70239 0.75784 1.7005 1.3308 3.0129 1.7098 1.3124 0.38816 2.8928 0.573 4.7412 0.573 2.7079 0 4.7596-0.3974 6.1644-1.2015 1.4048-0.79481 2.1072-1.9593 2.1072-3.4935z"/>
<path d="m489.22 291.92v-2.9759h-16.673v2.9759h6.5156v11.885h3.6506v-11.885h6.5064z"/>
<path d="m516.19 288.95h-3.5397l-3.8539 11.395-3.4473-11.395h-4.1682l-3.4195 11.395-3.9001-11.395h-3.8447l5.4713 14.861h4.353l3.4103-10.887 3.3271 10.887h4.353l5.2587-14.861z"/>
<path d="m526.17 288.65c-1.5249 0-2.8558 0.16636-3.9833 0.49907-1.1368 0.33272-2.1257 0.85027-2.9667 1.5619-0.84103 0.71164-1.4418 1.5157-1.8114 2.4122-0.36968 0.89647-0.55452 1.9501-0.55452 3.17 0 2.5138 0.8133 4.4362 2.4399 5.7578 1.6266 1.3308 3.9186 1.987 6.8761 1.987 2.061 0 3.78-0.2865 5.1478-0.8595 1.3678-0.57301 2.4029-1.4418 3.1053-2.6155 0.70239-1.1645 1.0536-2.5878 1.0536-4.2698 0-1.2846-0.18484-2.3752-0.53604-3.2809-0.36044-0.90571-0.95193-1.6913-1.7652-2.3752-0.82253-0.67467-1.8114-1.1737-2.9667-1.4972-1.1645-0.32347-2.5046-0.48983-4.0388-0.48983zm0 12.467c-1.3678 0-2.4676-0.19408-3.3179-0.60073-0.85027-0.40665-1.451-0.93345-1.8114-1.5989-0.36043-0.65618-0.53603-1.5157-0.53603-2.5693 0-1.0166 0.18484-1.8761 0.56376-2.5785 0.36968-0.70239 0.99814-1.2384 1.8854-1.6081 0.87799-0.36968 1.9408-0.56376 3.1977-0.56376 0.85026 0 1.6081 0.0832 2.2643 0.23105 0.64694 0.14787 1.2292 0.38816 1.7282 0.72087 0.49907 0.33272 0.85027 0.65619 1.0536 0.97966 0.20333 0.32347 0.36044 0.72087 0.47135 1.2015 0.1109 0.48058 0.17559 1.0166 0.17559 1.6174 0 1.5157-0.35119 2.6062-1.0443 3.2717-0.57301 0.55452-1.2292 0.94269-1.9686 1.1645-0.7486 0.2218-1.6358 0.33271-2.6617 0.33271z"/>
<path d="m554.61 293.28c0-1.4695-0.4621-2.56-1.3863-3.2717-0.9242-0.70239-2.2273-1.0628-3.9094-1.0628h-10.582v14.861h3.5397v-5.7947h5.767l3.9556 5.7947h4.0572l-4.4546-6.34c0.83179-0.12939 1.5434-0.54528 2.1349-1.2384 0.58225-0.68391 0.87799-1.6728 0.87799-2.9482zm-3.5027 0.2865c0 0.59149-0.14787 0.99814-0.44362 1.2384-0.29574 0.2403-0.80405 0.3512-1.5249 0.3512h-6.8483v-3.2902h6.645c0.54527 0 0.97041 0.0647 1.2754 0.19409 0.29575 0.12938 0.5268 0.30498 0.67467 0.52679 0.14787 0.23105 0.22181 0.55452 0.22181 0.97965z"/>
<path d="m572.17 303.81v-2.9944h-9.7134v-11.867h-3.5951v14.861h13.308z"/>
<path d="m584.59 303.81c1.2754 0 2.3844-0.14787 3.3179-0.4621 0.9242-0.31423 1.682-0.77633 2.2735-1.4048 0.58224-0.62846 0.99813-1.3771 1.2477-2.2458 0.24029-0.86875 0.36968-2.0425 0.36968-3.5304 0-1.4418-0.14787-2.5785-0.42514-3.4195-0.27726-0.83179-0.72087-1.5342-1.3124-2.1072-0.60073-0.56377-1.3678-0.9889-2.292-1.2662s-2.024-0.42513-3.2902-0.42513h-9.3344v14.861h9.4453zm3.6506-7.3197c0 1.4048-0.19408 2.3752-0.56376 2.9297-0.3512 0.51755-0.84102 0.88723-1.451 1.1183-0.61921 0.23105-1.414 0.34196-2.3752 0.34196h-5.1478v-9.011h5.2402c0.96117 0 1.7282 0.12015 2.3105 0.3512 0.57301 0.24029 1.0444 0.60997 1.4048 1.1183 0.38816 0.59149 0.58224 1.6358 0.58224 3.1515z"/>
</g>
</svg>
