<?xml version="1.0" encoding="UTF-8"?>
<svg version="1.1" viewBox="0 0 507.59 500.66" xmlSpace="preserve" xmlns="http://www.w3.org/2000/svg" xmlnsdc="http://purl.org/dc/elements/1.1/" xmlnsrdf="http://www.w3.org/1999/02/22-rdf-syntax-ns#"><metadata><rdfRDF><ccWork rdfabout=""><dcFormat>image/svg+xml</dcFormat><dcType rdfresource="http://purl.org/dc/dcmitype/StillImage"/></ccWork></rdfRDF></metadata><g transform="matrix(1.3333 0 0 -1.3333 -30.175 533.93)"><g transform="scale(.1)" fill-rule="evenodd" fill="#fff"><path d="m226.31 2118.4 29.191 226.73c21.5 166.55 141.08 213.45 301.38 192.79 162.2-20.84 268.74-94.16 247.01-263.44l-29.227-226.69zm140.54 132.16 310.52-39.99 5.285 40.77c12.993 101.58-44.179 123.42-139.78 135.74-88.621 11.41-158.07 3-170.63-95.02zm3648.6 151.07 17.1-251.98c7.23-107.2-40.93-172.61-153.2-180.22-121.51-8.26-185.49 55.26-193.17 168.19l-6.18 91.35-208.55-14.13-10.13 149.21zm-232.27-164.84c3.11-45.82 0.77-128.47 77.35-122.77 69.83 5.21 58.87 83.4 55.64 130.97zm-2817.3 1024.8c-109.59 152.32-97.574 312.11 36.307 403.08 133.57 90.76 283.48 71.3 393.85-92.32 82.72-122.63 125.24-275.52-34.68-397.58-148.84-113.59-297.44-49.44-395.48 86.82zm124.33 91.28c41.77-57.49 113.23-131.39 190.59-73.49 77.22 57.8 29.22 144.13-12.35 205.28-39.67 58.35-114.44 125.18-189.65 71.44-67.57-48.29-40.68-131.53 11.41-203.23zm562.43-2672.5-126.09 57.902c19.22 50.789 18.63 100.04-33.11 127.89-29.46 15.855-76.8 17.101-96.65-17.078-29.25-50.332 35.54-100.63 62.42-125.09 60.38-54.961 124.9-141.51 67.69-237.59-56.95-95.676-165.13-85.687-254.22-37.765-100.12 53.863-154.93 129.94-109.55 246.42l128.59-59.765c-14.79-44.203-2.63-82.453 38.59-104.62 23.3-12.524 57.95-12.246 72.96 15.664 14.65 27.23-9.78 48.16-26.66 62.516-78.16 66.457-191.94 172.59-112.92 298.29 71.93 114.44 190.87 100.8 290.95 43.024 107.85-62.246 155.54-136.9 98-269.79zm432.9-198.41-72.04 1.832c-111.65 2.019-104.82-124.96-5.18-126.9l75.02-1.886zm153.77 318.42-10.78-550.82-279.05 5.547c-83.74 1.664-168.86 30.75-166.34 157.93 1.57 78.738 40.1 121.31 109.49 142.82 12.41 3.848 12.3 12.918-0.17 19.406-30.74 16.008-52.75 48-69.42 83.035l-65.08 152.22 165.89-3.285 76.32-166.87c15.68-30.906 34.96-63.398 72.57-64.129l14.85-0.301 4.34 227.38zm1769 1007-112.49-396.07-113.07 31.23 69.89 253.15-97.6 26.97-64.78-234.54-109.62 30.28 64.75 234.5-119.73 33.06-72.19-261.45-118.12 32.63 111.87 405.16zm-141.21 1054.8 51.25-141.18-519.31-188.51-51.22 141.21zm-324.91 500.11 87.92-122.98-342.29-244.6 140.74-196.92-108.46-77.52-228.6 319.92zm-281.42 243.32 118.21-91.15-341.87-440.1-118.23 91.14zm-1958.1 241.47 450.86 132.35 37.58-127.9-153.22-44.96 118.85-404.87-144.16-42.28-118.82 404.83-153.55-45.09zm-886.52-917.02 80.641 122.37 168.86-111.3 98.867 150-168.91 111.28 87.074 132.12 467.05-307.79-87.05-132.11-186.88 123.16-98.836-150 186.86-123.16-80.649-122.32zm1510.5 776.52c-5.67 177.71 88.27 295.03 241.61 297.8 121.7 2.2 208.3-56.06 240.69-170.47l-130.19-29.16c-12.22 43.91-38.41 80.44-92.49 78.89-78.64-2.25-111.52-87.07-108.46-170.98 2.46-67.28 14.46-163.18 105.9-158.53 65.9 3.35 91.54 52.93 100.56 106.59l129.21-41.81c-20.64-99.26-79.58-181.07-221.72-189.63-177.08-10.66-260.04 118.33-265.11 277.3zm741.45 236.95 132.27-63.07-87.04-182.55 162.17-77.32 87 182.59 142.86-68.08-240.73-504.9-142.81 68.07 96.32 202-162.16 77.29-96.3-201.99-132.26 63.08zm1121.5-2736.5-134.52-213.78c-57.25-90.887-134.69-115.43-229.93-55.48-103.08 64.832-117.41 153.83-57.15 249.66l48.79 77.48-176.92 111.33 79.64 126.59zm-284.8 3.46c-24.47-38.87-75.01-104.31-9.75-144.77 59.52-36.9 96.69 32.74 122.07 73.12zm-101.22-500.78-204.67-148.04c-87.05-62.91-168.06-56.742-234.01 34.453-71.39 98.645-51.42 186.56 40.3 252.94l74.19 53.636-122.51 169.37 121.16 87.66zm-262.89 109.63c-37.23-26.914-108.56-68.734-63.14-130.66 41.41-56.457 101.93-5.746 140.55 22.215zm-223.37-430.51-390.12-131.66-36.83 106.61 248.2 85.8-30.89 89.442-229.97-79.477-35.18 101.82 229.92 79.472-37.52 108.59-256.35-88.617-40.02 115.83 397.25 137.32zm-2541.3 1013.4-119.5 394.01 107.68 33.51 78.067-250.74 90.359 28.11-72.317 232.32 102.87 32.01 72.312-232.27 109.7 34.13-80.625 258.99 117 36.4 124.95-401.31zm480.5-342.37-41.039 61.27c-64.293 94.51-166.36 13.74-109.12-70.65l42.762-63.82zm356.98 59.64-466.7-316.49-160.27 236.5c-48.109 70.97-74.09 159.29 33.695 232.34 66.723 45.23 125.09 38.15 184.05-7.1 10.567-8.1 18.078-2.64 16.125 11.61-4.781 35.14 8.95 72.45 28.383 107.07l88.75 144.34 95.282-140.57-94.348-162.41c-16.563-31.36-32.352-66.68-10.719-98.56l8.52-12.56 192.61 130.74 84.63-124.91"/><path d="m2767.3 3117.4 352.88-352.88-387.97-387.97h548.68v-499.04h-548.68l387.97-387.97-352.88-352.88-387.97 387.97v-548.67h-499.05v548.67l-387.96-387.97-352.88 352.88 387.97 387.97h-548.67v499.04h548.67l-387.97 387.97 352.88 352.88 387.96-387.96v548.66h499.05v-548.66l387.97 387.96" fill="#fff"/></g></g></svg>
